<?xml version="1.0" encoding="UTF-8"?>
<svg width="160px" height="60px" viewBox="0 0 160 60" version="1.1" xmlns="http://www.w3.org/2000/svg" xmlns:xlink="http://www.w3.org/1999/xlink">
    <!-- Generator: Sketch 52.4 (67378) - http://www.bohemiancoding.com/sketch -->
    <title>分组</title>
    <desc>Created with Sketch.</desc>
    <defs>
        <polygon id="path-1" points="0 0.151291204 4.965633 0.151291204 4.965633 5.12370607 0 5.12370607"></polygon>
        <polygon id="path-3" points="0.0658967723 0.0368944194 3.13117862 0.0368944194 3.13117862 3.10626703 0.0658967723 3.10626703"></polygon>
        <polygon id="path-5" points="0.0227755102 0.00277929155 12.1758367 0.00277929155 12.1758367 23.3014169 0.0227755102 23.3014169"></polygon>
    </defs>
    <g id="Welcome" stroke="none" stroke-width="1" fill="none" fill-rule="evenodd">
        <g id="home" transform="translate(-120.000000, -35.000000)">
            <g id="分组" transform="translate(120.000000, 35.000000)">
                <path d="M21.1791837,12.9699564 C20.1987755,14.8165504 17.9091429,15.5177493 16.064898,14.5361689 C14.2206531,13.5544251 13.5204082,11.2615095 14.5008163,9.41491553 C15.4812245,7.56815804 17.7710204,6.86695913 19.615102,7.848703 C21.4593469,8.83044687 22.1595918,11.1231989 21.1791837,12.9699564" id="Fill-1" fill="#15A4C6"></path>
                <path d="M33.8576,18.6108392 C33.4035592,19.3260981 32.4566204,19.5373243 31.7423347,19.0828283 C31.028049,18.6281689 30.8169469,17.6799401 31.2709878,16.9646812 C31.7248653,16.2494223 32.6719673,16.0381962 33.3862531,16.4926921 C34.1005388,16.9473515 34.3114776,17.8955804 33.8576,18.6108392" id="Fill-3" fill="#15A4C6"></path>
                <path d="M28.9980735,15.0034986 C28.2625633,16.1622997 26.7281959,16.5048065 25.5709714,15.7681308 C24.4135837,15.0316185 24.0717061,13.4951608 24.8072163,12.3363597 C25.5427265,11.1775586 27.0770939,10.8350518 28.2344816,11.571564 C29.3917061,12.3082398 29.7335837,13.8446975 28.9980735,15.0034986" id="Fill-5" fill="#15A4C6"></path>
                <path d="M1.31407347,17.1841635 C1.71227755,17.9319564 2.64060408,18.2147902 3.38721633,17.8160436 C4.13399184,17.417297 4.41644082,16.4878692 4.01823673,15.7400763 C3.62003265,14.9922834 2.69186939,14.7092861 1.94509388,15.1080327 C1.19831837,15.5069428 0.915869388,16.4363706 1.31407347,17.1841635" id="Fill-7" fill="#15A4C6"></path>
                <path d="M6.43381224,13.9579128 C7.07903673,15.1695204 8.58303673,15.6277766 9.79283265,14.981673 C11.0027918,14.3355695 11.4605878,12.8296839 10.8152,11.6180763 C10.1699755,10.4064687 8.66613878,9.94821253 7.45617959,10.5943161 C6.24638367,11.2404196 5.78858776,12.7463052 6.43381224,13.9579128" id="Fill-9" fill="#15A4C6"></path>
                <path d="M8.91755102,25.7802016 C10.0244898,27.5537166 9.48604082,29.8899564 7.71493878,30.9984033 C5.94383673,32.1068501 3.61077551,31.5676676 2.50367347,29.7941526 C1.39689796,28.0206376 1.93518367,25.6843978 3.70644898,24.575951 C5.47755102,23.4675041 7.81061224,24.0066866 8.91755102,25.7802016" id="Fill-11" fill="#15A4C6"></path>
                <path d="M20.1352653,17.6058965 C20.5267755,18.3571226 20.236,19.2840981 19.4857959,19.6763052 C18.7355918,20.0683488 17.8098776,19.7771771 17.4182041,19.025951 C17.0266939,18.2745613 17.3174694,17.3475858 18.0676735,16.9555422 C18.8180408,16.5634986 19.7437551,16.8545068 20.1352653,17.6058965" id="Fill-13" fill="#15A4C6"></path>
                <path d="M14.5856816,20.016376 C15.2201306,21.2337057 14.7491102,22.7355041 13.5334367,23.3708174 C12.3177633,24.0061308 10.8180082,23.5344687 10.1835592,22.317139 C9.5491102,21.0998093 10.0202939,19.5980109 11.2358041,18.9626975 C12.4514776,18.3273842 13.9512327,18.7992098 14.5856816,20.016376" id="Fill-15" fill="#15A4C6"></path>
                <path d="M2.6296,45.1144578 C3.47547755,45.1430681 4.18421224,44.4794714 4.21262041,43.6326049 C4.24119184,42.7855749 3.57849796,42.0758747 2.73278367,42.0472643 C1.88690612,42.018654 1.17817143,42.6822507 1.14976327,43.5292807 C1.12119184,44.3761471 1.78372245,45.0860109 2.6296,45.1144578" id="Fill-17" fill="#15A4C6"></path>
                <g transform="translate(0.000000, 33.939237)">
                    <mask id="mask-2" fill="white">
                        <use xlink:href="#path-1"></use>
                    </mask>
                    <g id="Clip-20"></g>
                    <path d="M2.39929796,5.12226703 C3.76974694,5.16853406 4.9181551,4.09343869 4.96419592,2.72112262 C5.0104,1.34880654 3.93676735,0.198833787 2.56648163,0.152730245 C1.19603265,0.106463215 0.0476244898,1.18155858 0.00142040816,2.55387466 C-0.0447836735,3.92602725 1.02884898,5.076 2.39929796,5.12226703" id="Fill-19" fill="#15A4C6" mask="url(#mask-2)"></path>
                </g>
                <path d="M13.6483429,44.0905831 C15.7356898,44.0175041 17.4870367,45.652545 17.5600163,47.7425722 C17.6331592,49.8327629 16.0001796,51.5864959 13.9129959,51.6595749 C11.825649,51.7328174 10.074302,50.0977766 10.0013224,48.0075858 C9.92817959,45.9173951 11.5609959,44.1638256 13.6483429,44.0905831" id="Fill-21" fill="#15A4C6"></path>
                <path d="M12.1876408,30.2753951 C13.0331918,30.3115259 13.6895184,31.0271117 13.6534367,31.8738147 C13.6175184,32.7205177 12.9027429,33.3775749 12.0573551,33.3416076 C11.2116408,33.3054768 10.5554776,32.589891 10.5915592,31.743188 C10.6274776,30.896485 11.3420898,30.2392643 12.1876408,30.2753951" id="Fill-23" fill="#15A4C6"></path>
                <path d="M11.4976653,36.2932316 C12.8676245,36.3515967 13.9309714,37.5110518 13.8725224,38.8828774 C13.8142367,40.254703 12.6563592,41.3194986 11.2864,41.2611335 C9.91627755,41.2027684 8.85309388,40.0431499 8.91137959,38.6713243 C8.96982857,37.2994986 10.1277061,36.2348665 11.4976653,36.2932316" id="Fill-25" fill="#15A4C6"></path>
                <path d="M21.8755429,56.3839292 C22.6007673,55.2185886 22.2451755,53.6852371 21.0814204,52.9590245 C19.9176653,52.232812 18.3864,52.5888883 17.6611755,53.7542289 C16.935951,54.919406 17.2915429,56.452921 18.455298,57.1791335 C19.6190531,57.905346 21.1503184,57.5492698 21.8755429,56.3839292" id="Fill-27" fill="#15A4C6"></path>
                <path d="M33.7377796,41.3327738 C33.3462694,40.5813842 33.6370449,39.6545722 34.387249,39.2623651 C35.1376163,38.8703215 36.0631673,39.1614932 36.4548408,39.9127193 C36.846351,40.664109 36.5555755,41.590921 35.8053714,41.9831281 C35.0550041,42.3751717 34.1294531,42.084 33.7377796,41.3327738" id="Fill-29" fill="#15A4C6"></path>
                <path d="M39.2873633,38.9221962 C38.6529143,37.70503 39.124098,36.2030681 40.3396082,35.5677548 C41.5552816,34.9324414 43.0550367,35.4041035 43.6894857,36.6214332 C44.3239347,37.8387629 43.852751,39.3405613 42.6372408,39.9758747 C41.4215673,40.611188 39.9218122,40.1395259 39.2873633,38.9221962" id="Fill-31" fill="#15A4C6"></path>
                <path d="M39.2252735,29.6584741 C38.3797224,29.6223433 37.7233959,28.9067575 37.7594776,28.0600545 C37.7955592,27.2133515 38.5101714,26.5561308 39.3557224,26.5922616 C40.2012735,26.6283924 40.8574367,27.3439782 40.8215184,28.1906812 C40.7854367,29.0373842 40.0708245,29.6944414 39.2252735,29.6584741" id="Fill-33" fill="#15A4C6"></path>
                <path d="M39.9153143,23.640654 C38.5453551,23.5822888 37.4820082,22.4226703 37.5404571,21.0508447 C37.5987429,19.6790191 38.7566204,18.6142234 40.1265796,18.672752 C41.4965388,18.7311172 42.5598857,19.8905722 42.5014367,21.2625613 C42.443151,22.6343869 41.2852735,23.6990191 39.9153143,23.640654" id="Fill-35" fill="#15A4C6"></path>
                <g transform="translate(24.326531, 56.827520)">
                    <mask id="mask-4" fill="white">
                        <use xlink:href="#path-3"></use>
                    </mask>
                    <g id="Clip-38"></g>
                    <path d="M2.40894694,0.269280654 C1.69074286,-0.179002725 0.7456,0.0408882834 0.297926531,0.760070845 C-0.149583673,1.47925341 0.0696816327,2.42568392 0.788212245,2.8739673 C1.50641633,3.32208719 2.45139592,3.10235967 2.89906939,2.38317711 C3.34674286,1.66399455 3.12731429,0.717400545 2.40894694,0.269280654" id="Fill-37" fill="#CDDC39" mask="url(#mask-4)"></path>
                </g>
                <path d="M26.9833959,45.3564196 C26.179151,44.844703 25.1933551,44.8550027 24.4196408,45.2969101 C23.9087837,45.2254659 23.2999673,44.9838311 22.712702,44.5844305 C22.1308245,44.1887902 21.7461714,43.7808883 21.5198857,43.4001253 C21.5411102,42.871406 21.2898449,42.3461199 20.8119673,42.0418692 C20.0976816,41.5872098 19.1505796,41.7985995 18.696702,42.5136948 C18.2428245,43.2291172 18.4536,44.177346 19.1678857,44.631842 C19.6222531,44.9210518 20.170498,44.9398529 20.6261714,44.7318965 C21.0965388,44.8285177 21.6322122,45.0565831 22.152702,45.4103706 C22.6635592,45.757782 23.0700898,46.1645395 23.3350694,46.5601798 C22.9167837,47.6431226 23.3037224,48.9062289 24.3198857,49.5529864 C25.4771102,50.2894986 27.0114776,49.9471553 27.7469878,48.7883542 C28.482498,47.6293896 28.1406204,46.0929319 26.9833959,45.3564196" id="Fill-39" fill="#CDDC39"></path>
                <path d="M33.7518204,6.17970572 C34.4770449,5.01436512 34.1214531,3.48085014 32.957698,2.75480109 C31.7939429,2.02858856 30.2626776,2.38466485 29.5376163,3.55000545 C28.8122286,4.71518256 29.1678204,6.24869755 30.3315755,6.97491008 C31.4951673,7.70095913 33.0265959,7.34504632 33.7518204,6.17970572" id="Fill-41" fill="#CDDC39"></path>
                <path d="M24.6774367,2.83706812 C25.3956408,3.28518801 26.3407837,3.06546049 26.7884571,2.34627793 C27.2359673,1.62709537 27.016702,0.68066485 26.2983347,0.232381471 C25.5801306,-0.21573842 24.6349878,0.00382561308 24.1873143,0.723171662 C23.7398041,1.44251771 23.9592327,2.38878474 24.6774367,2.83706812" id="Fill-43" fill="#CDDC39"></path>
                <path d="M51.1402939,16.8913569 C51.9861714,16.9199673 52.6949061,16.2563706 52.7234776,15.4095041 C52.7518857,14.5624741 52.0893551,13.8526104 51.2434776,13.8241635 C50.3976,13.7955531 49.6888653,14.4591499 49.6602939,15.3060163 C49.6318857,16.1530463 50.2944163,16.8629101 51.1402939,16.8913569" id="Fill-45" fill="#CDDC39"></path>
                <path d="M50.6959347,26.4221689 C50.9491592,25.6805886 51.4237714,25.1038038 51.9728327,24.7766649 C53.0304653,24.521297 53.8330776,23.5876185 53.8716082,22.4456567 C53.9178122,21.0733406 52.8443429,19.9233678 51.4738939,19.8771008 C50.1034449,19.8308338 48.9548735,20.9059292 48.9088327,22.2782452 C48.8884245,22.8856022 49.0877714,23.448654 49.4347102,23.8925232 C49.632751,24.4897439 49.6071184,25.2370463 49.3587918,25.9644033 C49.1578122,26.5532861 48.816098,27.0372098 48.4097306,27.3761199 C47.6448327,27.3252752 46.8578939,27.5023324 46.1581388,27.9401526 C44.3870367,29.0485995 43.848751,31.3848392 44.9555265,33.1585177 C46.0624653,34.9318692 48.3955265,35.4710518 50.1666286,34.3626049 C51.9377306,33.2543215 52.4761796,30.9180817 51.3692408,29.1444033 C51.160098,28.8094169 50.9072,28.5187357 50.6226286,28.2746485 C50.4655673,27.7228774 50.4745469,27.0707248 50.6959347,26.4221689" id="Fill-47" fill="#CDDC39"></path>
                <path d="M49.1670694,43.3085886 C48.4202939,43.7073351 48.1376816,44.6369264 48.5358857,45.3845559 C48.9340898,46.1323488 49.8624163,46.415346 50.6091918,46.016436 C51.3558041,45.6176894 51.6384163,44.6882616 51.2402122,43.9404687 C50.8420082,43.1926757 49.9136816,42.909842 49.1670694,43.3085886" id="Fill-49" fill="#CDDC39"></path>
                <path d="M42.7613878,46.1428774 C41.5514286,46.7889809 41.0936327,48.29503 41.7388571,49.5064741 C42.3840816,50.7180817 43.8880816,51.1765014 45.0980408,50.5303978 C46.308,49.8842943 46.7657959,48.3782452 46.1205714,47.1668011 C45.4753469,45.9551935 43.9713469,45.4967738 42.7613878,46.1428774" id="Fill-51" fill="#CDDC39"></path>
                <path d="M36.4893878,46.5884796 C34.6451429,45.6068992 32.3555102,46.3079346 31.375102,48.1546921 C30.3946939,50.0012861 31.0949388,52.2942016 32.9391837,53.2759455 C34.7834286,54.2576894 37.0730612,53.5564905 38.0533061,51.709733 C39.0337143,49.8629755 38.3334694,47.5702234 36.4893878,46.5884796" id="Fill-53" fill="#CDDC39"></path>
                <path d="M37.4999837,8.27422888 C35.4128,8.3473079 33.7798204,10.1010409 33.8529633,12.1912316 C33.9259429,14.2812589 35.6772898,15.9164632 37.7646367,15.8432207 C39.8519837,15.7699782 41.4848,14.0164087 41.4116571,11.926218 C41.3386776,9.83619074 39.5873306,8.20098638 37.4999837,8.27422888" id="Fill-55" fill="#CDDC39"></path>
                <path d="M90.5528327,23.1118692 C89.1676898,22.6387357 87.8540571,22.401842 86.6117714,22.401842 C85.2044245,22.401842 84.0584653,22.7239128 83.1737306,23.367891 C82.2885061,24.0118692 81.8462204,24.928218 81.8462204,26.1171008 C81.8462204,27.5263651 83.0060571,28.7647847 85.3255673,29.8323597 C87.0405061,30.6249482 88.1753633,31.1755749 88.7306286,31.4835858 C89.2857306,31.7919237 89.8491592,32.2158474 90.4209143,32.75503 C90.9923429,33.2945395 91.4516082,33.9301798 91.7977306,34.6621144 C92.1441796,35.394376 92.3172408,36.2172098 92.3172408,37.1307793 C92.3172408,39.3986812 91.5557714,41.1571553 90.0334857,42.4063651 C88.5107102,43.6559019 86.716098,44.2804251 84.6494857,44.2804251 C82.6485061,44.2804251 80.8953633,43.8842943 79.3892408,43.0915422 L79.9498939,40.7634768 C81.7198531,41.5670191 83.2643429,41.9688719 84.5835265,41.9688719 C86.1226286,41.9688719 87.3564245,41.5699619 88.2855673,40.7716512 C89.2142204,39.9736676 89.6788735,38.8755204 89.6788735,37.4775368 C89.6788735,36.4429864 89.3763429,35.5648937 88.7719347,34.8437493 C88.1673633,34.1229319 87.0512816,33.3880545 85.4245061,32.6394441 C83.7533224,31.8689264 82.6733224,31.3433134 82.1843429,31.0624414 C81.6950367,30.7818965 81.2086694,30.3937766 80.7249143,29.8984087 C80.2409959,29.4030409 79.8674449,28.847346 79.6036082,28.2306703 C79.3397714,27.6143215 79.2078531,26.9427139 79.2078531,26.2161744 C79.2078531,24.2899619 79.9004245,22.787346 81.2855673,21.708327 C82.6707102,20.6296349 84.4241796,20.0901253 86.5458122,20.0901253 C88.0958531,20.0901253 89.6347918,20.3270191 91.1629551,20.8001526 L90.5528327,23.1118692 Z" id="Fill-57" fill="#FFFFFF"></path>
                <path d="M111.370204,33.3164469 L108.319592,23.6732861 L105.285469,33.3164469 L111.370204,33.3164469 Z M117.553878,43.834594 L114.717633,43.834594 L112.145224,35.6777003 L104.510449,35.6777003 L101.905061,43.834594 L99.1017959,43.834594 L106.703592,20.5359564 L109.952082,20.5359564 L117.553878,43.834594 Z" id="Fill-59" fill="#FFFFFF"></path>
                <polygon id="Fill-61" fill="#FFFFFF" points="140.168898 20.5359728 132.583592 43.8346104 129.335102 43.8346104 121.733469 20.5359728 124.569714 20.5359728 130.951102 40.6972807 137.365633 20.5359728"></polygon>
                <g transform="translate(147.755102, 20.533243)">
                    <mask id="mask-6" fill="white">
                        <use xlink:href="#path-5"></use>
                    </mask>
                    <g id="Clip-64"></g>
                    <polygon id="Fill-63" fill="#FFFFFF" mask="url(#mask-6)" points="12.1759184 23.3014169 0.0227755102 23.3014169 0.0227755102 0.00277929155 12.0769796 0.00277929155 12.0769796 2.3640327 2.72726531 2.3640327 2.72726531 9.57989101 11.7142041 9.57989101 11.7142041 11.9411444 2.72726531 11.9411444 2.72726531 20.9401635 12.1759184 20.9401635"></polygon>
                </g>
            </g>
        </g>
    </g>
</svg>