<?xml version="1.0" encoding="UTF-8"?>
<svg width="93px" height="43px" viewBox="0 0 93 43" version="1.1" xmlns="http://www.w3.org/2000/svg" xmlns:xlink="http://www.w3.org/1999/xlink">
    <!-- Generator: Sketch 54 (76480) - https://sketchapp.com -->
    <title>编组 13</title>
    <desc>Created with Sketch.</desc>
    <g id="Welcome" stroke="none" stroke-width="1" fill="none" fill-rule="evenodd">
        <g id="规范" transform="translate(-325.000000, -2582.000000)">
            <g id="编组-3" transform="translate(190.000000, 2563.000000)">
                <g id="编组-13" transform="translate(135.000000, 19.000000)">
                    <g id="分组-copy-13复制-3">
                        <path d="M14.3598813,9.32375083 C13.66846,10.6340833 12.0536476,11.1315436 10.7529608,10.4351687 C9.45210141,9.73844601 8.95830298,8.11165853 9.64972434,6.80132607 C10.3411457,5.49099361 11.9561306,4.99335939 13.2568174,5.6899082 C14.5575042,6.38645701 15.0514753,8.01341837 14.3598813,9.32375083" id="Fill-1" fill="#15A4C6"></path>
                        <path d="M23.1865434,12.9702412 C22.8903886,13.4398088 22.2720415,13.5786837 21.8057653,13.2801751 C21.3394891,12.9816666 21.2017947,12.358902 21.498269,11.8891734 C21.7944239,11.4194448 22.4126112,11.2807308 22.8788874,11.5792394 C23.3451636,11.877748 23.482858,12.5005125 23.1865434,12.9702412" id="Fill-3" fill="#15A4C6"></path>
                        <path d="M19.7477256,10.6430356 C19.2537801,11.4258564 18.2236589,11.6571105 17.446426,11.1596742 C16.6695218,10.6620723 16.4398026,9.62416017 16.9337481,8.84133937 C17.4275293,8.05851857 18.4578147,7.82726446 19.2348833,8.32470081 C20.0119519,8.82213717 20.241671,9.86021483 19.7477256,10.6430356" id="Fill-5" fill="#15A4C6"></path>
                        <path d="M0.784839092,12.231926 C1.04470965,12.7230316 1.65054186,12.9087249 2.13801877,12.6469199 C2.62533595,12.3851149 2.80981689,11.774773 2.54994634,11.2836674 C2.28991606,10.7927227 1.68408385,10.6068685 1.19660694,10.8686735 C0.709289755,11.1306394 0.524808814,11.7409813 0.784839092,12.231926" id="Fill-7" fill="#15A4C6"></path>
                        <path d="M4.19805664,9.86055656 C4.63133491,10.6788956 5.6410031,10.9885866 6.45350256,10.552106 C7.26583771,10.1157909 7.5730923,9.09849492 7.13981403,8.28015592 C6.70670006,7.4616514 5.69686757,7.15212593 4.88453242,7.58844098 C4.07219727,8.02492155 3.76477837,9.04221756 4.19805664,9.86055656" id="Fill-9" fill="#15A4C6"></path>
                        <path d="M5.59664874,18.732124 C6.37736585,19.9905391 5.99762284,21.6483711 4.74844095,22.4348588 C3.49925906,23.2215204 1.85341833,22.8389705 1.07270123,21.5803815 C0.29198412,20.3219664 0.67172713,18.6641344 1.92108163,17.8774728 C3.17026352,17.0909851 4.81593164,17.4737088 5.59664874,18.732124" id="Fill-11" fill="#15A4C6"></path>
                        <path d="M13.8919538,12.6353353 C14.1475119,13.1286753 13.95776,13.7373853 13.4680468,13.994836 C12.9783336,14.2522867 12.3742582,14.0611296 12.1185404,13.5677897 C11.8629823,13.0744497 12.0527342,12.4657397 12.5424474,12.208289 C13.0321606,11.9508383 13.636236,12.1419954 13.8919538,12.6353353" id="Fill-13" fill="#15A4C6"></path>
                        <path d="M9.81447422,14.3401942 C10.2405223,15.1623578 9.92423131,16.1768617 9.10795402,16.605903 C8.29184105,17.0351098 7.28480331,16.7164738 6.85891951,15.8943102 C6.4328714,15.0719811 6.74916242,14.0574771 7.5654397,13.6284358 C8.38155268,13.199229 9.38842611,13.5180305 9.81447422,14.3401942" id="Fill-15" fill="#15A4C6"></path>
                        <path d="M1.63371085,32.2494121 C2.18582575,32.2682418 2.64863734,31.8324221 2.66716898,31.2762209 C2.68570061,30.7198588 2.25324256,30.2537828 1.70112765,30.2349531 C1.148853,30.2162843 0.686041402,30.652104 0.667509767,31.2083052 C0.648978133,31.7645064 1.08143619,32.2307433 1.63371085,32.2494121" id="Fill-17" fill="#15A4C6"></path>
                        <path d="M1.61129555,27.5459107 C2.53158277,27.5770348 3.30281633,26.8509147 3.33371169,25.9238119 C3.36477138,24.9967092 2.64382495,24.2197639 1.72353772,24.1884742 C0.803250495,24.1571845 0.03218127,24.8834702 0.000957239163,25.8107385 C-0.0299381177,26.7378413 0.690843984,27.514621 1.61129555,27.5459107" id="Fill-19" fill="#15A4C6"></path>
                        <path d="M9.24379178,31.5797956 C10.7161876,31.5279712 11.9517295,32.6882806 12.0031744,34.1715358 C12.054792,35.6549649 10.902805,36.8994454 9.43040919,36.9514436 C7.95801339,37.0034419 6.72264413,35.8429586 6.67102655,34.3597034 C6.61940897,32.8762744 7.77139598,31.6317939 9.24379178,31.5797956" id="Fill-21" fill="#15A4C6"></path>
                        <path d="M8.3792768,21.5009279 C8.93129814,21.524587 9.35981369,21.9945494 9.33616704,22.550618 C9.31283995,23.1068475 8.84613826,23.5385047 8.29411693,23.5146847 C7.74209559,23.4910256 7.31358004,23.0210632 7.33722668,22.4649947 C7.36055378,21.9089261 7.82725547,21.4772688 8.3792768,21.5009279" id="Fill-23" fill="#15A4C6"></path>
                        <path d="M7.7405999,26.2046698 C8.66076691,26.2440717 9.3746811,27.0274754 9.33556701,27.9542492 C9.29645293,28.8811886 8.51877293,29.6003572 7.59877027,29.5609552 C6.6787676,29.5215533 5.96468907,28.7381496 6.0039675,27.8113758 C6.04308158,26.8844364 6.82059724,26.1652678 7.7405999,26.2046698" id="Fill-25" fill="#15A4C6"></path>
                        <path d="M15.0870189,40.1928864 C15.5740403,39.405749 15.3352947,38.3698067 14.5538259,37.879315 C13.7725215,37.3888233 12.7442558,37.6291857 12.2572345,38.4164886 C11.7703775,39.203626 12.0091231,40.2395683 12.7904275,40.73006 C13.5718963,41.2205517 14.5999976,40.9801893 15.0870189,40.1928864" id="Fill-27" fill="#15A4C6"></path>
                        <path d="M23.4565149,29.6927897 C23.2008055,29.1994497 23.3907109,28.5907397 23.8804079,28.333289 C24.3701049,28.0758383 24.9741603,28.2669954 25.2298697,28.7603353 C25.4854193,29.2536753 25.2956737,29.8623853 24.805817,30.119836 C24.3162797,30.3772867 23.7122243,30.1861296 23.4565149,29.6927897" id="Fill-29" fill="#15A4C6"></path>
                        <path d="M27.5339295,27.9879656 C27.1078774,27.1656681 27.4241714,26.1513688 28.2404564,25.7221785 C29.056577,25.2929882 30.0636242,25.6117774 30.489512,26.4339094 C30.9155641,27.2562069 30.5991058,28.2705062 29.7829852,28.6996965 C28.9668645,29.1288868 27.9598173,28.8100976 27.5339295,27.9879656" id="Fill-31" fill="#15A4C6"></path>
                        <path d="M26.9683948,20.8271971 C26.4164141,20.803538 25.9879302,20.3335756 26.0114153,19.777507 C26.0349004,19.2212775 26.501408,18.7896203 27.0533886,18.8134403 C27.605529,18.8370994 28.034013,19.3070618 28.0103681,19.8631303 C27.986883,20.4191989 27.5203754,20.8508562 26.9683948,20.8271971" id="Fill-33" fill="#15A4C6"></path>
                        <path d="M27.606916,16.7953302 C26.6869585,16.7559283 25.9729151,15.9725246 26.0120273,15.0457508 C26.0513038,14.1188114 26.8289455,13.3996428 27.7487386,13.4390448 C28.6688604,13.4784467 29.3829038,14.2618504 29.3436273,15.1886242 C29.3045151,16.1155636 28.5270377,16.8347322 27.606916,16.7953302" id="Fill-35" fill="#15A4C6"></path>
                        <path d="M18.2027602,41.1369976 C17.7339376,40.8426738 17.1170406,40.9868586 16.824885,41.4591607 C16.5327295,41.9314627 16.6758522,42.5530991 17.1448345,42.847423 C17.6136571,43.1417468 18.2305541,42.997401 18.5227097,42.525099 C18.8148652,42.0527969 18.6717425,41.4313214 18.2027602,41.1369976" id="Fill-37" fill="#CDDC39"></path>
                        <path d="M18.5475619,32.2031827 C17.9933706,31.8228638 17.3140393,31.8305102 16.7805922,32.1589426 C16.4287835,32.1057817 16.0091767,31.9262727 15.6044113,31.6295183 C15.2035249,31.3356769 14.9384035,31.0325505 14.7822315,30.7498146 C14.7970729,30.3569336 14.6236984,29.9666015 14.2943205,29.7406677 C13.8021933,29.4027682 13.149509,29.5597021 12.8368277,30.0911291 C12.5238091,30.6225561 12.6691874,31.3271201 13.1614833,31.6648375 C13.4745019,31.8796658 13.852283,31.8936843 14.1664821,31.7391171 C14.4906318,31.81103 14.8598116,31.9803438 15.2183663,32.2432354 C15.5705122,32.5013935 15.8508123,32.8034276 16.033294,33.0974511 C15.7450673,33.9019649 16.0117065,34.8404733 16.7119507,35.3209241 C17.5096759,35.8681901 18.5669569,35.6136732 19.0739256,34.7527214 C19.5808943,33.8917697 19.3451184,32.7502667 18.5475619,32.2031827" id="Fill-39" fill="#CDDC39"></path>
                        <path d="M23.090235,4.58356968 C23.5772676,3.7964508 23.3385164,2.76053283 22.5571939,2.26988711 C21.775707,1.77940694 20.7474176,2.01992928 20.2605493,2.80721369 C19.7735167,3.59433258 20.0124321,4.63025055 20.7935904,5.12073073 C21.5750772,5.6112109 22.6033667,5.37068856 23.090235,4.58356968" id="Fill-41" fill="#CDDC39"></path>
                        <path d="M17.1448679,1.86304745 C17.6136802,2.1573723 18.2305638,2.013026 18.522713,1.54072231 C18.8148621,1.06841863 18.6717426,0.446941009 18.2027705,0.152616159 C17.7339581,-0.141708691 17.1170746,0.00247669237 16.8247657,0.474941296 C16.5327762,0.947244978 16.6758958,1.5687226 17.1448679,1.86304745" id="Fill-43" fill="#CDDC39"></path>
                        <path d="M35.6475117,12.0931717 C36.1994255,12.1118406 36.6622024,11.6761798 36.6808924,11.1198151 C36.6994227,10.5636113 36.2668373,10.0975331 35.7147637,10.0787033 C35.1626902,10.0600344 34.6999132,10.4956952 34.6812233,11.051899 C34.6628527,11.6082637 35.0952784,12.0743419 35.6475117,12.0931717" id="Fill-45" fill="#CDDC39"></path>
                        <path d="M35.1162296,18.7813561 C35.2941791,18.2521599 35.6277271,17.8404852 36.0133704,17.6070163 C36.7564602,17.4247881 37.3203969,16.7584836 37.3473902,15.9433536 C37.3798853,14.9640084 36.62562,14.1432821 35.6628012,14.1104041 C34.6998105,14.0773512 33.8931059,14.8445633 33.8606107,15.8239085 C33.8461684,16.2574436 33.9864649,16.6593249 34.2300924,16.9760381 C34.3691854,17.4022282 34.3513044,17.9356216 34.1766216,18.4546745 C34.0356374,18.8749185 33.7954485,19.2203126 33.5100415,19.4621759 C32.9725823,19.4259751 32.4196492,19.5522407 31.9280959,19.8647567 C30.6838245,20.6557529 30.3055743,22.3230881 31.0832224,23.5887169 C31.8608705,24.8545205 33.5000695,25.2392633 34.7445128,24.4482672 C35.9886122,23.6570961 36.3670344,21.9897609 35.5893862,20.7241321 C35.4422125,20.485067 35.2646068,20.2776557 35.06465,20.1034721 C34.9544416,19.7096354 34.9608031,19.2442716 35.1162296,18.7813561" id="Fill-47" fill="#CDDC39"></path>
                        <path d="M34.5433424,31.0249551 C34.056008,31.286921 33.8716803,31.8972629 34.13156,32.3882076 C34.3914398,32.8791523 34.9972934,33.0650065 35.4847875,32.8032015 C35.9721219,32.5412356 36.1566094,31.9308937 35.8967296,31.439949 C35.6366902,30.9488434 35.0308366,30.7631501 34.5433424,31.0249551" id="Fill-49" fill="#CDDC39"></path>
                        <path d="M29.5610635,33.119772 C28.7488804,33.5562591 28.4414568,34.5734047 28.8745774,35.3919215 C29.3078622,36.2102727 30.3175456,36.5198028 31.1300574,36.0833157 C31.9424048,35.6469941 32.249664,34.6296829 31.8165435,33.8113317 C31.3832587,32.9929805 30.3735753,32.6832849 29.5610635,33.119772" id="Fill-51" fill="#CDDC39"></path>
                        <path d="M25.2617992,33.2368186 C23.9608956,32.5402667 22.3460283,33.0377293 21.6545834,34.3482414 C20.9631386,35.6585797 21.4569538,37.2853745 22.7576848,37.9819264 C24.0584159,38.6784783 25.6734557,38.1810157 26.3649006,36.8706774 C27.0561729,35.5603391 26.5623576,33.9333705 25.2617992,33.2368186" id="Fill-53" fill="#CDDC39"></path>
                        <path d="M25.9170962,6.04855637 C24.4446529,6.10038074 23.2928013,7.34503514 23.3444206,8.82829032 C23.3958672,10.3117194 24.6314489,11.4720288 26.1038923,11.4202044 C27.5763356,11.3682061 28.7281871,10.1237256 28.6765679,8.64029655 C28.6252939,7.15704137 27.3895395,5.99655809 25.9170962,6.04855637" id="Fill-55" fill="#CDDC39"></path>
                    </g>
                    <path d="M57.56,30.192 C55.8639915,30.192 54.3360068,29.8200037 52.976,29.076 C51.6159932,28.3319963 50.5480039,27.3040066 49.772,25.992 C48.9959961,24.6799934 48.608,23.2160081 48.608,21.6 C48.608,19.9839919 48.9959961,18.5200066 49.772,17.208 C50.5480039,15.8959934 51.6159932,14.8680037 52.976,14.124 C54.3360068,13.3799963 55.8639915,13.008 57.56,13.008 C59.2400084,13.008 60.7599932,13.3799963 62.12,14.124 C63.4800068,14.8680037 64.5439962,15.8919935 65.312,17.196 C66.0800038,18.5000065 66.464,19.9679918 66.464,21.6 C66.464,23.2320082 66.0800038,24.6999935 65.312,26.004 C64.5439962,27.3080065 63.4800068,28.3319963 62.12,29.076 C60.7599932,29.8200037 59.2400084,30.192 57.56,30.192 Z M57.56,28.056 C58.7920062,28.056 59.8999951,27.7760028 60.884,27.216 C61.8680049,26.6559972 62.6439972,25.8840049 63.212,24.9 C63.7800028,23.9159951 64.064,22.8160061 64.064,21.6 C64.064,20.3839939 63.7800028,19.2840049 63.212,18.3 C62.6439972,17.3159951 61.8680049,16.5440028 60.884,15.984 C59.8999951,15.4239972 58.7920062,15.144 57.56,15.144 C56.3279938,15.144 55.212005,15.4239972 54.212,15.984 C53.211995,16.5440028 52.4280028,17.3159951 51.86,18.3 C51.2919972,19.2840049 51.008,20.3839939 51.008,21.6 C51.008,22.8160061 51.2919972,23.9159951 51.86,24.9 C52.4280028,25.8840049 53.211995,26.6559972 54.212,27.216 C55.212005,27.7760028 56.3279938,28.056 57.56,28.056 Z M84.584,13.2 L84.584,30 L82.616,30 L72.536,17.472 L72.536,30 L70.136,30 L70.136,13.2 L72.104,13.2 L82.184,25.728 L82.184,13.2 L84.584,13.2 Z M89.624,13.2 L92.024,13.2 L92.024,30 L89.624,30 L89.624,13.2 Z" id="ONI" fill="#FFFFFF" fill-rule="nonzero"></path>
                </g>
            </g>
        </g>
    </g>
</svg>